 <svg  version="1.0" xmlns="http://www.w3.org/2000/svg"  width="300.000000pt" height="300.000000pt" viewBox="0 0 300.000000 300.000000"  preserveAspectRatio="xMidYMid meet">  <g transform="translate(0.000000,300.000000) scale(0.100000,-0.100000)" fill="#ff0000" stroke="none"> <path d="M485 2822 c-127 -44 -222 -128 -282 -249 l-38 -77 0 -996 0 -996 38 -78 c51 -101 122 -172 223 -223 l78 -38 996 0 996 0 78 38 c101 51 172 122 223 223 l38 78 3 611 3 612 -27 26 c-36 37 -91 37 -127 1 l-26 -26 -3 -581 -3 -582 -24 -52 c-29 -65 -91 -124 -157 -149 -47 -18 -88 -19 -979 -19 l-930 0 -52 24 c-65 29 -124 91 -149 157 -18 47 -19 88 -19 974 0 886 1 927 19 974 25 66 84 128 149 157 l52 24 582 3 581 3 26 26 c36 36 36 91 0 127 l-27 26 -596 0 c-539 -1 -601 -2 -646 -18z"/> <path d="M2355 2821 c-27 -13 -258 -238 -722 -702 l-683 -684 -55 -165 c-73 -219 -74 -275 -4 -354 82 -94 150 -98 379 -21 l165 55 684 683 c464 464 689 695 702 722 25 54 25 137 -1 190 -25 52 -235 260 -283 280 -50 21 -133 19 -182 -4z m213 -274 c78 -80 92 -99 83 -114 -5 -10 -53 -61 -105 -113 l-96 -95 -113 113 -112 112 107 106 c89 89 109 104 125 96 10 -6 60 -53 111 -105z m-360 -340 c56 -56 102 -107 102 -112 0 -6 -217 -227 -482 -492 -539 -538 -465 -479 -691 -553 -127 -41 -129 -39 -66 148 l49 147 483 483 c265 265 487 482 492 482 6 0 56 -46 113 -103z"/> </g> </svg> 