 <svg  version="1.0" xmlns="http://www.w3.org/2000/svg"  width="300.000000pt" height="300.000000pt" viewBox="0 0 300.000000 300.000000"  preserveAspectRatio="xMidYMid meet">  <g transform="translate(0.000000,300.000000) scale(0.100000,-0.100000)" fill="#ff0000" stroke="none"> <path d="M1410 2799 c-30 -5 -92 -27 -136 -49 -314 -154 -379 -567 -129 -815 97 -96 217 -145 355 -145 140 0 258 48 355 145 250 250 185 662 -129 815 -111 54 -198 68 -316 49z m222 -196 c63 -28 134 -96 166 -158 37 -72 42 -188 13 -266 -30 -79 -88 -141 -169 -181 -57 -28 -76 -33 -142 -33 -66 0 -85 5 -142 33 -81 40 -139 102 -169 181 -29 78 -24 194 13 266 26 51 93 121 139 146 82 44 207 49 291 12z"/> <path d="M354 2410 c-68 -27 -132 -85 -169 -151 -27 -49 -30 -62 -30 -149 0 -84 3 -101 27 -145 32 -60 87 -115 148 -146 67 -33 177 -38 251 -10 75 29 141 88 176 159 24 49 28 69 28 142 0 103 -22 157 -90 225 -62 62 -121 88 -215 92 -58 2 -87 -1 -126 -17z m189 -177 c39 -20 67 -70 67 -121 0 -138 -158 -200 -249 -97 -54 62 -51 143 8 199 48 46 108 53 174 19z"/> <path d="M2434 2416 c-287 -90 -297 -500 -15 -607 74 -28 184 -23 251 10 61 31 116 86 148 146 24 44 27 61 27 145 0 87 -3 100 -30 149 -75 136 -236 202 -381 157z m175 -185 c46 -32 66 -69 66 -121 0 -52 -19 -87 -68 -124 -35 -26 -114 -27 -151 -2 -60 39 -84 131 -52 195 38 73 140 99 205 52z"/> <path d="M303 1575 c-142 -39 -236 -126 -282 -263 -20 -58 -21 -84 -21 -426 0 -233 4 -375 11 -393 15 -42 68 -92 109 -103 19 -5 159 -10 310 -10 l275 0 18 -49 c21 -61 80 -114 142 -130 61 -15 1209 -15 1270 0 62 16 121 69 142 130 l18 49 280 0 c309 0 336 5 383 65 41 51 43 84 40 470 l-3 370 -32 67 c-57 120 -157 201 -281 227 -68 14 -226 14 -294 0 -104 -22 -203 -90 -258 -177 -24 -37 -29 -40 -41 -26 -52 63 -220 160 -330 190 -83 23 -413 27 -499 5 -113 -28 -295 -130 -349 -195 -12 -14 -17 -11 -41 26 -55 87 -154 155 -258 177 -72 15 -246 13 -309 -4z m315 -181 c75 -31 126 -101 137 -191 5 -37 2 -65 -16 -118 -20 -62 -23 -95 -27 -297 l-4 -228 -264 0 -264 0 0 340 c0 371 2 384 58 444 49 52 94 66 225 66 84 0 128 -4 155 -16z m1097 1 c178 -47 329 -197 382 -379 20 -67 31 -592 14 -625 l-12 -21 -599 0 -599 0 -12 21 c-17 33 -6 558 13 624 54 184 202 331 379 379 77 21 355 21 434 1z m980 -4 c22 -10 52 -31 67 -47 56 -60 58 -73 58 -444 l0 -340 -264 0 -264 0 -4 228 c-4 199 -7 235 -26 292 -25 74 -26 90 -11 158 13 61 66 127 123 153 59 27 263 27 321 0z"/> </g> </svg> 