 <svg  version="1.0" xmlns="http://www.w3.org/2000/svg"  width="300.000000pt" height="300.000000pt" viewBox="0 0 300.000000 300.000000"  preserveAspectRatio="xMidYMid meet">  <g transform="translate(0.000000,300.000000) scale(0.100000,-0.100000)" fill="#ff0000" stroke="none"> <path d="M684 2792 c-28 -10 -64 -29 -81 -42 -50 -41 -95 -114 -100 -165 -5 -40 -11 -49 -53 -80 -26 -19 -65 -58 -88 -87 -87 -114 -117 -214 -109 -355 3 -51 2 -93 -2 -93 -4 0 -14 -13 -24 -29 -23 -39 -23 -133 0 -172 17 -28 67 -59 95 -59 9 0 20 -18 28 -42 23 -80 63 -143 127 -205 48 -47 64 -68 61 -85 -2 -13 -36 -55 -78 -94 -65 -62 -90 -78 -185 -119 -136 -59 -184 -91 -223 -151 -53 -79 -56 -112 -38 -472 15 -329 19 -352 56 -352 43 0 44 12 30 368 -12 327 -9 394 17 391 13 -1 113 -126 141 -177 l27 -47 3 -257 c3 -277 5 -287 56 -274 36 9 39 39 34 303 -6 290 -7 293 -162 477 -21 26 -37 49 -34 51 2 3 51 25 109 50 120 53 99 62 186 -83 59 -99 82 -122 124 -122 24 0 99 45 114 69 21 36 25 -15 25 -357 0 -273 3 -371 12 -380 18 -18 56 -14 68 7 6 13 10 151 10 380 0 199 3 361 6 361 3 0 26 -18 51 -40 47 -41 85 -50 123 -30 10 5 45 53 78 107 93 151 71 141 191 88 58 -25 107 -47 109 -50 2 -2 -29 -43 -69 -92 -40 -48 -84 -113 -98 -143 -26 -54 -26 -60 -29 -311 -3 -228 -2 -258 13 -272 20 -20 48 -22 63 -4 7 8 12 109 14 272 3 226 5 264 21 292 19 36 134 176 147 181 5 2 14 -14 21 -36 9 -30 9 -96 0 -278 -6 -132 -11 -283 -11 -336 0 -97 0 -98 26 -104 50 -13 51 -3 68 351 9 189 12 345 7 365 -27 117 -81 170 -248 245 -112 50 -137 66 -203 129 -45 42 -76 81 -78 95 -3 18 10 37 52 78 68 64 112 130 132 201 11 36 21 52 32 52 29 0 80 38 98 71 22 43 16 140 -12 170 -16 18 -19 37 -20 138 0 80 -6 132 -18 168 -24 74 -101 184 -168 238 -44 36 -58 54 -58 74 0 39 -43 122 -81 158 -81 76 -203 102 -305 65z m189 -88 c42 -21 75 -52 93 -86 17 -33 15 -34 -71 -13 -75 18 -142 18 -225 0 -85 -19 -83 -19 -66 13 17 33 50 64 91 85 40 21 137 22 178 1z m16 -185 c126 -29 245 -122 302 -237 27 -55 34 -82 37 -149 7 -133 -11 -160 -76 -114 -21 15 -52 20 -147 25 -196 9 -333 57 -437 153 -32 29 -63 53 -70 53 -17 0 -48 -31 -48 -47 0 -27 105 -118 181 -156 103 -52 191 -75 343 -89 102 -9 138 -16 160 -32 20 -13 46 -20 79 -20 45 -1 51 -4 59 -27 12 -36 -6 -79 -32 -79 -49 0 -77 -27 -100 -95 -57 -172 -191 -275 -355 -275 -161 0 -306 107 -352 259 -21 69 -44 97 -91 108 -44 10 -62 47 -44 88 13 29 52 34 72 10 22 -27 67 -18 110 22 34 30 40 42 38 67 -3 27 -7 31 -34 34 -24 2 -35 -3 -48 -23 l-17 -25 -38 20 c-36 18 -39 23 -43 67 -17 211 118 402 323 457 64 17 166 20 228 5z m-189 -1170 c52 -13 129 -11 188 4 28 8 54 12 57 9 3 -3 5 -22 5 -41 0 -32 -10 -46 -84 -120 l-84 -83 -81 80 c-78 78 -81 82 -81 127 0 44 1 46 23 39 12 -4 38 -11 57 -15z m-22 -328 c-79 -68 -73 -68 -114 -4 -21 32 -50 80 -66 107 l-29 49 33 34 32 33 93 -92 92 -92 -41 -35z m394 179 l27 -31 -60 -97 c-34 -53 -65 -101 -69 -106 -5 -5 -33 13 -64 40 l-55 49 87 88 c47 48 91 87 97 87 6 0 23 -14 37 -30z"/> <path d="M2025 2804 c-77 -12 -234 -78 -250 -105 -3 -4 -25 -13 -48 -19 -66 -18 -114 -56 -143 -117 -26 -52 -27 -58 -21 -186 3 -73 10 -145 14 -161 8 -26 5 -33 -21 -57 -28 -25 -31 -33 -34 -103 -4 -75 -4 -76 31 -111 19 -19 48 -38 65 -41 25 -5 31 -14 46 -59 9 -30 34 -80 56 -113 30 -45 40 -69 40 -101 0 -38 -6 -46 -77 -115 -73 -70 -86 -78 -198 -121 -148 -58 -172 -70 -185 -94 -7 -15 -5 -25 8 -42 l19 -22 141 57 c78 31 146 56 152 56 5 0 49 -59 97 -131 107 -160 120 -172 192 -167 l54 3 -6 -120 c-4 -66 -12 -254 -18 -417 -13 -314 -11 -328 31 -328 42 0 43 13 60 440 6 146 13 289 16 317 l5 53 43 0 43 0 6 -118 c4 -64 11 -236 17 -382 7 -146 16 -275 21 -287 5 -15 17 -23 33 -23 43 0 49 20 42 142 -3 62 -11 217 -16 343 -5 127 -12 264 -15 306 l-6 76 49 -5 c77 -7 97 10 198 162 49 75 94 136 100 136 22 0 244 -92 269 -112 l26 -20 -91 -94 c-61 -63 -100 -114 -118 -152 l-27 -57 -3 -324 c-2 -178 -1 -339 3 -357 4 -25 12 -35 31 -40 53 -14 54 -10 54 350 0 211 4 346 11 371 8 29 35 64 100 130 l89 90 0 -59 c0 -32 -7 -239 -16 -459 -13 -353 -13 -402 0 -415 25 -25 64 -8 70 31 2 17 12 222 21 455 20 502 20 498 -74 592 -51 51 -68 60 -196 109 -136 51 -142 55 -217 127 -74 70 -78 77 -78 118 0 27 6 48 16 56 23 20 66 98 85 154 15 44 22 51 60 65 63 24 84 58 84 141 0 49 -5 73 -17 86 -14 17 -15 30 -6 107 30 260 -81 463 -294 537 -63 21 -249 35 -323 24z m286 -104 c120 -37 202 -123 234 -245 15 -61 19 -162 9 -227 -10 -58 -37 -51 -64 17 -12 31 -30 60 -40 65 -10 6 -46 4 -96 -5 -208 -37 -383 -3 -491 96 -24 22 -49 39 -57 39 -16 0 -46 -26 -46 -41 0 -46 115 -130 223 -164 66 -21 101 -26 198 -26 65 0 142 2 171 6 l53 7 22 -51 c23 -55 50 -73 96 -64 37 7 57 -12 57 -56 0 -42 -14 -61 -46 -61 -36 0 -71 -40 -88 -100 -29 -105 -108 -194 -212 -242 -39 -18 -67 -23 -139 -23 -78 0 -98 4 -152 29 -39 18 -81 48 -111 80 -56 59 -76 93 -92 159 -14 53 -40 85 -78 92 -56 12 -71 36 -58 90 8 33 35 39 68 15 36 -26 57 -25 97 4 58 43 77 86 49 114 -19 19 -39 14 -68 -13 -24 -23 -30 -24 -52 -14 -29 13 -44 68 -55 205 -5 68 -3 87 15 127 21 48 69 87 106 87 11 0 33 11 50 24 43 32 92 56 156 77 80 26 257 26 341 -1z m-290 -1160 c91 -17 224 5 284 46 30 21 35 17 35 -26 0 -38 -5 -43 -121 -145 -67 -58 -125 -105 -129 -103 -5 2 -60 48 -124 103 -113 98 -116 101 -116 142 l0 42 54 -24 c29 -13 82 -29 117 -35z m-118 -185 l127 -110 -57 -57 c-32 -32 -65 -58 -75 -58 -12 0 -49 47 -108 135 -49 74 -90 136 -90 139 0 9 63 67 69 64 4 -2 64 -52 134 -113z m554 83 l32 -33 -87 -129 c-48 -71 -95 -134 -104 -140 -15 -9 -28 -1 -79 50 l-61 61 128 111 c71 62 131 112 134 112 3 0 20 -15 37 -32z m-345 -275 c8 -10 18 -30 22 -45 6 -27 5 -28 -39 -28 -42 0 -45 2 -45 27 0 25 24 63 40 63 4 0 14 -8 22 -17z"/> <path d="M1652 868 c-18 -18 -14 -56 7 -68 32 -16 183 -13 209 6 26 18 28 37 6 58 -20 20 -203 23 -222 4z"/> <path d="M470 670 c-24 -24 -25 -34 -4 -54 11 -12 36 -16 93 -16 82 0 101 9 101 47 0 30 -33 43 -111 43 -46 0 -63 -4 -79 -20z"/> </g> </svg> 