 <svg  version="1.0" xmlns="http://www.w3.org/2000/svg"  width="300.000000pt" height="300.000000pt" viewBox="0 0 300.000000 300.000000"  preserveAspectRatio="xMidYMid meet">  <g transform="translate(0.000000,300.000000) scale(0.100000,-0.100000)" fill="#ff0000" stroke="none"> <path d="M560 2991 c-76 -23 -147 -89 -171 -157 -21 -58 -21 -2610 0 -2668 17 -49 73 -111 125 -139 l41 -22 945 0 945 0 41 22 c52 28 108 90 125 139 12 32 14 228 14 1107 l0 1067 -330 330 -331 330 -689 -1 c-380 0 -701 -4 -715 -8z m1312 -333 c5 -235 11 -264 71 -326 69 -72 87 -77 335 -80 l222 -3 0 -1011 c0 -914 -2 -1013 -16 -1044 -32 -67 22 -64 -984 -64 -1010 0 -957 -4 -986 65 -12 29 -14 229 -14 1303 0 918 3 1278 11 1301 7 18 26 41 43 52 30 18 60 19 672 19 l642 0 4 -212z m373 -276 c-237 -4 -245 4 -245 250 l0 153 200 -200 200 -200 -155 -3z"/> <path d="M903 2554 c-7 -3 -17 -21 -23 -40 -6 -19 -16 -34 -20 -34 -18 0 -83 -66 -96 -97 -31 -72 -4 -169 58 -217 19 -14 59 -30 88 -36 61 -12 90 -33 90 -67 0 -47 -32 -63 -125 -63 -72 0 -88 -3 -105 -20 -45 -45 -15 -96 63 -106 29 -4 47 -12 47 -20 0 -8 11 -21 25 -30 35 -23 84 -3 92 37 3 16 9 29 14 29 17 0 87 71 99 100 21 50 9 142 -24 185 -32 41 -95 74 -142 75 -17 0 -38 8 -47 18 -20 22 -22 75 -4 90 6 5 53 12 104 14 103 5 123 15 123 63 0 42 -27 65 -76 65 -33 0 -42 5 -56 30 -17 29 -49 38 -85 24z"/> <path d="M1397 1982 c-22 -24 -22 -76 0 -93 13 -11 91 -14 413 -14 377 0 399 1 419 19 26 24 27 60 1 86 -19 19 -33 20 -418 20 -374 0 -400 -1 -415 -18z"/> <path d="M800 1623 c-50 -19 -65 -68 -30 -103 20 -20 33 -20 730 -20 697 0 710 0 730 20 26 26 25 62 -1 86 -20 18 -48 19 -718 21 -383 1 -703 -1 -711 -4z"/> <path d="M770 1230 c-26 -26 -25 -62 1 -86 20 -18 47 -19 729 -19 682 0 709 1 729 19 26 24 27 60 1 86 -20 20 -33 20 -730 20 -697 0 -710 0 -730 -20z"/> <path d="M805 873 c-53 -13 -71 -67 -35 -103 20 -20 33 -20 730 -20 697 0 710 0 730 20 26 26 25 62 -1 86 -20 18 -48 19 -713 20 -380 1 -700 0 -711 -3z"/> <path d="M770 480 c-26 -26 -25 -62 1 -86 20 -18 42 -19 419 -19 436 0 430 -1 430 60 0 66 7 65 -433 65 -384 0 -398 -1 -417 -20z"/> </g> </svg> 