 <svg version="1.0" xmlns="http://www.w3.org/2000/svg"  width="300.000000pt" height="300.000000pt" viewBox="0 0 300.000000 300.000000"  preserveAspectRatio="xMidYMid meet">  <g transform="translate(0.000000,300.000000) scale(0.050000,-0.050000)" fill="#ff0000" stroke="none"> <path d="M2750 5979 c-2658 -262 -3706 -3569 -1668 -5265 1874 -1559 4672 -382 4896 2061 164 1791 -1437 3380 -3228 3204z m2113 -1639 c49 -48 58 -73 53 -135 l-6 -75 -1910 0 -1910 0 1 97 c3 187 -160 172 1906 173 l1806 0 60 -60z m37 -1340 l0 -1000 -699 0 -699 0 -56 -70 -56 -70 -393 0 -393 0 -55 65 -55 65 -702 10 -702 10 -5 995 -5 995 1910 0 1910 0 0 -1000z m-2391 -1190 l53 -70 441 0 440 0 62 70 62 70 787 0 c894 0 850 11 680 -168 l-105 -112 -1928 0 -1927 0 -97 105 c-171 185 -211 175 691 175 l787 0 54 -70z"/> <path d="M2947 3590 c-7 -18 -3 -42 8 -53 33 -33 95 -11 95 33 0 51 -85 67 -103 20z"/> <path d="M2684 3536 c-34 -34 -30 -69 9 -85 42 -16 73 14 64 60 -9 45 -41 57 -73 25z"/> <path d="M3261 3541 c-38 -24 -16 -91 29 -91 26 0 42 15 46 42 7 47 -35 73 -75 49z"/> <path d="M2454 3314 c-15 -41 16 -79 58 -71 54 11 50 85 -4 93 -24 3 -48 -6 -54 -22z"/> <path d="M3448 3311 c-16 -40 7 -71 51 -71 39 0 61 34 46 75 -12 34 -84 32 -97 -4z"/> <path d="M2394 3047 c-34 -34 -14 -90 31 -83 29 4 45 20 45 46 0 39 -49 64 -76 37z"/> <path d="M3528 3031 c-18 -47 7 -95 47 -87 47 9 47 103 0 112 -19 4 -41 -7 -47 -25z"/> <path d="M3462 2752 c-48 -58 21 -121 74 -68 33 33 30 51 -14 75 -28 15 -44 13 -60 -7z"/> <path d="M2450 2739 c-21 -32 40 -87 80 -72 18 7 30 29 26 48 -7 41 -85 58 -106 24z"/> <path d="M2685 2547 c-32 -13 -32 -56 1 -83 34 -29 80 2 71 47 -8 39 -33 51 -72 36z"/> <path d="M2947 2450 c-7 -18 -3 -42 8 -53 33 -33 95 -11 95 33 0 51 -85 67 -103 20z"/> </g> </svg> 