 <svg  version="1.0" xmlns="http://www.w3.org/2000/svg"  width="300.000000pt" height="300.000000pt" viewBox="0 0 300.000000 300.000000"  preserveAspectRatio="xMidYMid meet">  <g transform="translate(0.000000,300.000000) scale(0.100000,-0.100000)" fill="#ff0000" stroke="none"> <path d="M396 2980 c-54 -27 -76 -48 -97 -95 -17 -37 -19 -80 -19 -662 l0 -623 50 0 50 0 0 621 0 621 29 29 29 29 1186 0 1186 0 32 -29 33 -29 0 -1042 0 -1042 -33 -29 -32 -29 -540 0 -540 0 0 -50 0 -50 533 0 c359 0 545 4 572 11 62 18 120 82 134 149 8 41 11 337 9 1075 -3 1124 1 1044 -65 1107 -64 61 11 58 -1290 58 -1158 -1 -1189 -1 -1227 -20z"/> <path d="M480 2750 l0 -50 50 0 50 0 0 50 0 50 -50 0 -50 0 0 -50z"/> <path d="M680 2750 l0 -50 50 0 50 0 0 50 0 50 -50 0 -50 0 0 -50z"/> <path d="M880 2750 l0 -50 50 0 50 0 0 50 0 50 -50 0 -50 0 0 -50z"/> <path d="M480 2550 l0 -50 1148 2 1147 3 0 45 0 45 -1147 3 -1148 2 0 -50z"/> <path d="M496 2334 c-14 -13 -16 -54 -16 -289 0 -261 1 -275 19 -285 12 -6 135 -10 328 -10 251 0 313 3 329 14 18 13 19 30 22 223 2 155 -1 214 -11 233 -12 24 -15 25 -143 28 l-130 3 -49 49 -49 50 -142 0 c-116 0 -145 -3 -158 -16z m310 -134 l53 -50 110 0 111 0 0 -150 0 -150 -250 0 -250 0 0 200 0 200 87 0 86 0 53 -50z"/> <path d="M1296 2334 c-24 -23 -24 -545 0 -568 13 -14 57 -16 330 -16 301 0 315 1 334 20 19 19 20 33 20 228 0 269 11 252 -158 252 l-128 0 -49 50 -49 50 -142 0 c-116 0 -145 -3 -158 -16z m310 -134 l53 -50 110 0 111 0 0 -150 0 -150 -250 0 -250 0 0 200 0 200 87 0 86 0 53 -50z"/> <path d="M2096 2334 c-14 -13 -16 -54 -16 -289 0 -261 1 -275 19 -285 12 -6 135 -10 328 -10 251 0 313 3 329 14 18 13 19 30 22 223 2 155 -1 214 -11 233 -12 24 -15 25 -143 28 l-130 3 -49 49 -49 50 -142 0 c-116 0 -145 -3 -158 -16z m310 -134 l53 -50 110 0 111 0 0 -150 0 -150 -250 0 -250 0 0 200 0 200 87 0 86 0 53 -50z"/> <path d="M650 1590 c-11 -6 -16 -33 -20 -90 l-5 -82 -48 -20 -48 -21 -52 51 c-36 35 -61 52 -78 52 -19 0 -54 -29 -142 -118 -64 -66 -117 -127 -117 -136 0 -10 24 -43 54 -74 l54 -57 -18 -45 -17 -45 -82 -5 c-58 -4 -85 -9 -91 -20 -13 -20 -13 -340 0 -360 6 -11 33 -16 91 -20 l82 -5 17 -45 18 -45 -54 -57 c-30 -31 -54 -64 -54 -74 0 -9 53 -70 117 -136 88 -89 123 -118 142 -118 17 0 42 17 78 52 l52 51 48 -21 48 -20 5 -82 c4 -57 9 -84 20 -90 8 -5 90 -10 182 -10 199 0 198 -1 198 115 l0 70 47 17 48 17 50 -49 c33 -33 59 -50 75 -50 32 0 260 224 260 256 0 11 -22 42 -50 69 -27 27 -50 54 -50 59 0 6 7 30 16 53 l17 43 73 0 c113 0 114 2 114 198 0 201 0 202 -109 202 l-78 0 -17 43 c-9 23 -16 47 -16 53 0 5 23 32 50 59 28 27 50 58 50 69 0 32 -228 256 -260 256 -16 0 -42 -17 -75 -50 l-50 -49 -47 17 -48 17 0 70 c0 116 1 115 -198 115 -92 0 -174 -5 -182 -10z m280 -159 c0 -69 14 -101 43 -101 7 0 41 -14 75 -30 35 -17 73 -30 85 -30 12 0 42 21 69 47 l48 47 70 -69 70 -69 -39 -41 c-62 -64 -65 -77 -38 -132 14 -27 30 -66 37 -88 17 -56 33 -65 112 -65 l68 0 0 -100 0 -100 -68 0 c-79 0 -95 -9 -112 -65 -7 -22 -23 -62 -36 -89 -26 -57 -23 -68 37 -131 l39 -41 -70 -69 -70 -69 -48 47 c-27 26 -57 47 -69 47 -12 0 -50 -13 -85 -30 -34 -16 -68 -30 -75 -30 -29 0 -43 -32 -43 -101 l0 -69 -100 0 -100 0 0 58 c0 78 -15 102 -76 122 -27 10 -64 25 -82 34 -48 25 -69 20 -123 -31 l-50 -47 -69 69 -70 69 50 51 c28 28 50 58 50 67 0 9 -14 47 -31 84 -57 129 -46 119 -127 122 l-72 3 0 99 0 99 72 3 c81 3 70 -7 127 122 17 37 31 75 31 84 0 9 -22 39 -50 67 l-50 51 70 69 69 69 50 -47 c54 -51 75 -56 123 -31 18 9 55 24 82 34 61 20 76 44 76 123 l0 57 100 0 100 0 0 -69z"/> <path d="M747 1140 c-101 -26 -197 -105 -240 -198 -18 -38 -22 -66 -22 -142 0 -84 3 -101 28 -150 81 -158 250 -232 413 -181 172 52 272 212 244 387 -18 109 -94 210 -196 260 -58 28 -165 39 -227 24z m165 -105 c85 -30 168 -145 168 -235 0 -51 -39 -136 -80 -176 -159 -155 -420 -45 -420 176 0 173 167 291 332 235z"/> <path d="M1430 1500 l0 -50 62 0 c60 0 62 -1 114 -50 l53 -50 110 0 111 0 0 -150 0 -150 -75 0 -75 0 0 -50 0 -50 109 0 c149 0 141 -14 141 252 0 263 10 248 -162 248 l-121 0 -53 50 -53 50 -80 0 -81 0 0 -50z"/> <path d="M2098 1539 c-16 -9 -18 -34 -18 -284 0 -235 2 -276 16 -289 13 -14 58 -16 333 -16 284 0 320 2 332 17 11 12 14 64 14 235 0 206 -1 221 -19 234 -15 10 -52 14 -141 14 l-121 0 -49 50 -49 50 -141 0 c-77 0 -148 -5 -157 -11z m308 -139 l53 -50 110 0 111 0 0 -150 0 -150 -250 0 -250 0 0 200 0 200 87 0 86 0 53 -50z"/> </g> </svg> 