 <svg  version="1.0" xmlns="http://www.w3.org/2000/svg"  width="300.000000pt" height="300.000000pt" viewBox="0 0 300.000000 300.000000"  preserveAspectRatio="xMidYMid meet">  <g transform="translate(0.000000,300.000000) scale(0.100000,-0.100000)" fill="#ff0000" stroke="none"> <path d="M1360 2734 c-199 -42 -368 -190 -448 -392 -25 -62 -27 -78 -27 -217 0 -145 1 -153 31 -227 62 -152 169 -267 309 -335 338 -161 736 0 864 350 24 66 26 85 26 217 -1 133 -3 151 -27 212 -118 299 -417 459 -728 392z m299 -269 c71 -32 151 -111 184 -182 18 -40 22 -66 22 -158 0 -92 -4 -118 -22 -158 -33 -71 -113 -150 -186 -183 -54 -25 -74 -29 -157 -29 -83 0 -103 4 -157 29 -73 33 -153 112 -186 183 -32 69 -32 246 0 315 44 95 149 182 250 208 67 17 184 5 252 -25z"/> <path d="M1045 1370 c-146 -14 -251 -49 -380 -124 -92 -54 -229 -191 -284 -283 -98 -165 -131 -305 -131 -554 l0 -159 1250 0 1250 0 0 159 c0 182 -17 298 -59 407 -88 227 -267 407 -493 497 -139 56 -168 59 -638 62 -239 2 -471 0 -515 -5z m1049 -282 c155 -63 270 -168 340 -310 36 -72 65 -183 66 -245 l0 -33 -1000 0 -1000 0 0 33 c0 57 29 168 59 234 77 164 226 289 403 338 43 12 144 14 558 12 l505 -2 69 -27z"/> </g> </svg> 