 <svg  version="1.0" xmlns="http://www.w3.org/2000/svg"  width="300.000000pt" height="300.000000pt" viewBox="0 0 300.000000 300.000000"  preserveAspectRatio="xMidYMid meet">  <g transform="translate(0.000000,300.000000) scale(0.100000,-0.100000)" fill="#ff0000" stroke="none"> <path d="M815 2539 c-363 -182 -667 -337 -675 -345 -13 -13 -15 -103 -18 -669 -1 -360 1 -670 5 -688 8 -31 30 -43 678 -369 369 -185 681 -337 695 -337 15 -1 317 145 690 332 516 258 667 338 677 357 19 37 14 1350 -5 1373 -21 24 -1334 677 -1362 677 -14 -1 -322 -150 -685 -331z m1277 -90 l583 -292 -128 -63 -127 -64 -580 290 c-319 160 -580 293 -580 298 1 7 227 121 243 122 4 0 269 -131 589 -291z m-397 -196 c316 -159 575 -290 575 -293 0 -3 -79 -45 -175 -93 l-175 -87 -580 290 c-319 160 -580 293 -580 298 1 8 329 172 347 172 7 0 272 -129 588 -287z m-500 -250 c316 -159 575 -290 575 -293 0 -3 -61 -36 -135 -73 l-135 -67 -587 293 -587 294 130 65 c71 36 137 66 146 67 10 0 277 -128 593 -286z m-345 -248 l590 -295 0 -585 0 -585 -28 12 c-16 7 -283 141 -595 297 l-567 284 0 583 c0 321 2 584 5 584 3 0 271 -133 595 -295z m1900 -290 l0 -585 -572 -286 c-315 -157 -583 -290 -595 -295 l-23 -9 0 585 0 585 140 70 140 70 0 -300 0 -301 25 -24 c49 -50 67 -35 211 176 64 93 120 172 125 174 4 3 49 -24 100 -60 50 -36 98 -65 106 -65 8 0 25 11 38 25 l25 24 0 333 0 333 133 67 c72 37 135 67 140 67 4 1 7 -262 7 -584z m-410 155 l0 -229 -64 44 c-103 72 -108 70 -215 -87 l-91 -132 0 225 0 224 183 92 c100 51 183 92 185 92 1 1 2 -102 2 -229z"/> </g> </svg> 