 <svg  version="1.0" xmlns="http://www.w3.org/2000/svg"  width="300.000000pt" height="300.000000pt" viewBox="0 0 300.000000 300.000000"  preserveAspectRatio="xMidYMid meet">  <g transform="translate(0.000000,300.000000) scale(0.100000,-0.100000)" fill="#ff0000" stroke="none"> <path d="M1179 2986 c-101 -36 -142 -98 -169 -254 -20 -117 -34 -154 -72 -189 -59 -55 -119 -55 -263 -2 -94 35 -118 40 -166 36 -63 -5 -104 -24 -145 -65 -29 -29 -272 -441 -300 -507 -22 -54 -18 -133 11 -191 18 -37 49 -70 119 -127 98 -81 126 -123 126 -187 0 -64 -28 -106 -126 -187 -110 -90 -144 -144 -144 -229 0 -29 5 -65 11 -81 20 -54 274 -486 303 -515 41 -41 81 -60 145 -65 48 -4 72 1 166 36 144 53 204 53 263 -2 38 -35 52 -72 72 -190 23 -134 52 -187 124 -232 l49 -30 317 0 317 0 49 30 c72 45 101 98 124 232 20 118 34 155 72 190 59 55 119 55 263 2 94 -35 118 -40 166 -36 64 5 104 24 145 65 29 29 283 461 303 515 6 16 11 52 11 81 0 85 -34 139 -144 229 -98 81 -126 123 -126 187 0 64 28 106 126 187 110 90 144 144 144 229 0 29 -5 65 -11 81 -20 54 -274 486 -303 515 -41 41 -81 60 -145 65 -48 4 -72 -1 -166 -36 -144 -53 -204 -53 -263 2 -38 35 -52 72 -72 187 -21 123 -45 178 -95 216 -66 50 -88 53 -395 53 -208 0 -295 -3 -321 -13z m586 -332 c12 -62 33 -134 48 -166 34 -68 119 -151 191 -184 119 -54 220 -53 373 6 43 17 82 30 88 30 6 0 66 -93 132 -207 l121 -208 -51 -45 c-169 -145 -209 -212 -215 -360 -7 -159 37 -247 183 -370 l84 -71 -115 -197 c-63 -108 -119 -204 -123 -212 -8 -13 -18 -11 -73 9 -134 51 -207 65 -280 53 -91 -14 -167 -51 -233 -113 -72 -68 -104 -137 -130 -273 l-21 -111 -244 0 -244 0 -22 113 c-12 62 -34 137 -48 166 -33 66 -119 149 -190 182 -119 54 -220 53 -373 -6 -43 -17 -82 -30 -88 -30 -6 0 -66 93 -132 208 l-121 207 51 45 c100 86 154 147 183 206 27 55 29 67 29 174 0 107 -2 119 -29 174 -29 59 -83 120 -183 206 l-51 45 121 208 c66 114 126 207 132 207 6 0 45 -13 88 -30 108 -41 190 -54 263 -41 91 17 174 63 237 131 63 68 88 125 112 257 9 48 18 94 20 101 4 10 58 12 247 10 l242 -3 21 -111z"/> <path d="M1380 2064 c-258 -55 -460 -302 -460 -564 0 -206 135 -423 320 -514 128 -62 245 -78 375 -51 263 55 465 301 465 565 0 143 -67 299 -174 406 -142 142 -335 200 -526 158z m247 -246 c79 -29 162 -112 191 -191 49 -131 20 -271 -77 -368 -76 -76 -145 -102 -256 -97 -99 4 -159 31 -231 103 -92 91 -120 234 -72 362 28 77 112 162 188 191 76 29 180 29 257 0z"/> </g> </svg> 